<?xml version="1.0" standalone="no"?>
<!DOCTYPE svg PUBLIC "-//W3C//DTD SVG 20010904//EN"
 "http://www.w3.org/TR/2001/REC-SVG-20010904/DTD/svg10.dtd">
<svg version="1.0" xmlns="http://www.w3.org/2000/svg"
 width="2000.000000pt" height="1950.000000pt" viewBox="0 0 2000.000000 1950.000000"
 preserveAspectRatio="xMidYMid meet">

<g transform="translate(0.000000,1950.000000) scale(0.100000,-0.100000)"
fill="#000000" stroke="none">
<path d="M3425 19493 c-914 -35 -1745 -395 -2386 -1033 -519 -517 -866 -1186
-988 -1905 -55 -320 -52 94 -48 -6885 2 -4971 6 -6454 15 -6520 44 -309 92
-520 171 -752 184 -538 472 -993 882 -1393 560 -547 1252 -878 2049 -982 128
-17 493 -18 6870 -18 7162 0 6786 -2 7070 46 1370 232 2491 1268 2829 2615 40
161 66 301 88 474 17 139 18 429 18 6605 0 6866 2 6511 -46 6800 -162 969
-727 1833 -1549 2370 -541 354 -1118 540 -1779 575 -161 9 -12977 12 -13196 3z
m11010 -4352 c181 -38 324 -112 451 -233 190 -183 291 -409 309 -698 13 -209
-22 -396 -110 -575 -129 -265 -348 -446 -630 -522 -92 -25 -115 -27 -290 -27
-174 1 -198 3 -290 27 -233 63 -433 196 -553 370 -91 132 -149 271 -178 424
-23 126 -16 405 15 518 23 88 83 220 132 293 160 236 430 399 731 442 92 13
309 3 413 -19z m-5176 -658 c15 -13 437 -1193 1471 -4113 798 -2252 1485
-4189 1526 -4305 88 -247 96 -283 65 -314 l-21 -21 -920 0 c-993 0 -960 -2
-988 52 -7 12 -167 471 -355 1018 l-343 995 -1553 0 -1553 0 -324 -1000 c-310
-960 -324 -1001 -358 -1033 l-36 -32 -843 0 c-958 0 -887 -7 -887 82 0 53 -78
-174 1745 5073 405 1166 782 2251 837 2410 123 353 184 552 203 665 19 114 35
295 35 401 0 72 3 91 21 113 l20 26 1119 0 c1050 0 1119 -1 1139 -17z m5760
-2114 c66 -23 61 259 61 -3314 0 -3490 3 -3297 -48 -3324 -15 -8 -284 -11
-881 -11 l-861 0 -32 29 -33 29 -3 3268 c-2 2949 -1 3270 14 3291 8 13 25 28
37 33 34 13 1707 13 1746 -1z"/>
<path d="M8106 12959 c-3 -8 -14 -59 -26 -114 -80 -367 -141 -584 -420 -1480
-106 -341 -206 -665 -222 -720 -130 -443 -192 -642 -269 -872 -49 -146 -89
-269 -89 -274 0 -5 459 -9 1055 -9 580 0 1055 3 1055 8 0 13 -75 251 -198 627
-67 204 -183 568 -258 810 -74 242 -158 510 -186 595 -105 328 -184 590 -298
999 -66 234 -124 429 -129 434 -7 7 -12 6 -15 -4z"/>
</g>
</svg>
