<?xml version="1.0" standalone="no"?>
<!DOCTYPE svg PUBLIC "-//W3C//DTD SVG 20010904//EN"
 "http://www.w3.org/TR/2001/REC-SVG-20010904/DTD/svg10.dtd">
<svg version="1.0" xmlns="http://www.w3.org/2000/svg"
 width="2000.000000pt" height="1950.000000pt" viewBox="0 0 2000.000000 1950.000000"
 preserveAspectRatio="xMidYMid meet">

<g transform="translate(0.000000,1950.000000) scale(0.100000,-0.100000)"
fill="#000000" stroke="none">
<path d="M3250 19489 c-707 -61 -1370 -324 -1925 -765 -141 -113 -436 -408
-549 -549 -423 -533 -674 -1143 -758 -1840 -19 -163 -19 -13007 0 -13170 84
-697 335 -1307 758 -1840 113 -141 408 -436 549 -549 533 -423 1143 -674 1840
-758 163 -19 13507 -19 13670 0 179 22 341 51 500 92 1001 257 1831 929 2293
1855 207 416 327 861 362 1340 14 193 14 12697 0 12890 -35 479 -155 924 -362
1340 -462 926 -1292 1598 -2293 1855 -141 36 -286 64 -485 92 -66 9 -1600 12
-6795 14 -3690 1 -6753 -2 -6805 -7z m4255 -4959 c616 -30 1044 -116 1527
-306 373 -147 797 -435 1041 -706 352 -392 572 -847 671 -1388 62 -340 62
-822 1 -1205 -76 -471 -263 -904 -543 -1255 -351 -439 -826 -760 -1397 -943
-509 -164 -1040 -232 -1770 -227 -203 2 -451 3 -550 4 l-180 1 -3 -1367 -2
-1366 -31 -26 -31 -26 -838 0 -839 0 -28 24 -28 24 0 4342 0 4342 24 19 c21
17 40 19 175 19 83 0 403 7 711 15 1328 36 1749 41 2090 25z m7295 -2075 c525
-35 877 -98 1185 -211 151 -55 177 -76 194 -152 7 -37 11 -268 11 -740 0 -800
6 -751 -92 -766 -57 -8 -59 -8 -195 57 -291 137 -562 217 -948 281 -645 108
-1174 75 -1376 -85 -87 -68 -139 -183 -139 -304 0 -62 5 -82 35 -142 39 -78
125 -169 226 -239 116 -82 572 -298 764 -364 406 -139 908 -383 1245 -605 308
-203 561 -497 681 -790 84 -207 126 -404 135 -640 36 -904 -451 -1631 -1319
-1970 -423 -165 -858 -235 -1456 -235 -724 0 -1355 110 -1866 325 -116 48
-159 80 -181 132 -21 49 -21 1508 0 1558 21 50 50 50 129 3 105 -62 334 -171
466 -223 176 -68 292 -105 487 -154 396 -99 660 -134 1024 -134 507 0 776 91
883 298 29 56 32 67 32 160 0 90 -3 106 -29 158 -37 77 -143 182 -248 247
-157 96 -384 198 -777 349 -429 165 -702 301 -1041 519 -265 171 -485 390
-660 657 -274 420 -336 1036 -159 1570 140 423 407 765 796 1021 101 67 335
185 471 238 236 92 566 160 897 185 182 13 596 12 825 -4z"/>
<path d="M6355 12891 l-40 -6 -3 -1401 -2 -1402 47 -6 c27 -3 203 -8 393 -12
554 -11 825 17 1199 122 238 67 383 135 540 251 291 218 425 446 482 828 19
124 17 412 -4 525 -41 222 -138 437 -266 592 -211 255 -505 402 -977 490 -113
21 -148 22 -724 24 -333 1 -623 -1 -645 -5z"/>
</g>
</svg>
