<?xml version="1.0" standalone="no"?>
<!DOCTYPE svg PUBLIC "-//W3C//DTD SVG 20010904//EN"
 "http://www.w3.org/TR/2001/REC-SVG-20010904/DTD/svg10.dtd">
<svg version="1.0" xmlns="http://www.w3.org/2000/svg"
 width="2000.000000pt" height="2000.000000pt" viewBox="0 0 2000.000000 2000.000000"
 preserveAspectRatio="xMidYMid meet">

<g transform="translate(0.000000,2000.000000) scale(0.100000,-0.100000)"
fill="#000000" stroke="none">
<path d="M3360 19994 c-19 -2 -84 -9 -145 -14 -327 -31 -704 -128 -1030 -265
-305 -128 -653 -342 -910 -558 -95 -81 -320 -304 -404 -402 -477 -552 -766
-1220 -853 -1970 -19 -162 -19 -13408 0 -13570 85 -733 369 -1399 825 -1940
81 -95 304 -320 402 -404 552 -477 1220 -766 1970 -853 162 -19 13408 -19
13570 0 750 87 1418 376 1970 853 98 84 321 309 402 404 456 541 740 1207 825
1940 19 162 19 13408 0 13570 -87 750 -376 1418 -853 1970 -84 98 -309 321
-404 402 -467 394 -1061 674 -1660 783 -323 59 271 54 -7010 56 -3663 0 -6676
-1 -6695 -2z m4393 -5314 c436 -26 782 -77 1142 -167 698 -174 1252 -470 1675
-893 148 -148 231 -248 348 -425 326 -490 492 -1089 492 -1780 0 -570 -105
-1053 -330 -1510 -241 -491 -623 -905 -1121 -1215 -137 -86 -441 -239 -594
-299 -448 -177 -938 -284 -1465 -321 -80 -5 -477 -10 -882 -10 l-738 0 0
-1295 0 -1295 -1280 0 -1280 0 0 4610 0 4610 1930 0 c1202 0 1996 -4 2103 -10z
m7457 -1190 l0 -900 660 0 660 0 0 -960 0 -960 -660 0 -660 0 0 -1293 c0 -833
4 -1323 10 -1377 27 -218 99 -390 210 -500 73 -73 148 -117 260 -152 68 -21
93 -23 275 -23 211 0 331 17 491 66 36 11 67 19 69 17 2 -2 6 -429 10 -950 l8
-947 -129 -40 c-250 -79 -491 -115 -873 -131 -546 -23 -980 28 -1366 160 -602
207 -1014 626 -1218 1240 -77 230 -125 486 -147 775 -6 87 -10 707 -10 1648
l0 1507 -515 0 -515 0 0 960 0 960 515 0 515 0 0 900 0 900 1205 0 1205 0 0
-900z"/>
<path d="M6280 11375 l0 -1126 708 4 c671 4 713 5 819 25 285 54 492 152 649
307 203 199 296 477 281 839 -8 210 -42 348 -125 510 -147 287 -411 464 -809
543 -77 15 -174 17 -805 20 l-718 4 0 -1126z"/>
</g>
</svg>
