<?xml version="1.0" standalone="no"?>
<!DOCTYPE svg PUBLIC "-//W3C//DTD SVG 20010904//EN"
 "http://www.w3.org/TR/2001/REC-SVG-20010904/DTD/svg10.dtd">
<svg version="1.0" xmlns="http://www.w3.org/2000/svg"
 width="2000.000000pt" height="1950.000000pt" viewBox="0 0 2000.000000 1950.000000"
 preserveAspectRatio="xMidYMid meet">

<g transform="translate(0.000000,1950.000000) scale(0.100000,-0.100000)"
fill="#000000" stroke="none">
<path d="M3345 19493 c-619 -33 -1242 -241 -1760 -586 -923 -615 -1495 -1600
-1575 -2709 -14 -200 -14 -12695 0 -12893 76 -1055 590 -1990 1440 -2617 512
-378 1106 -603 1765 -670 192 -19 13378 -19 13570 0 852 86 1599 440 2193
1041 602 608 953 1394 1012 2266 8 113 10 2033 8 6535 -4 5970 -5 6383 -21
6500 -27 196 -45 294 -82 445 -331 1351 -1435 2389 -2802 2635 -62 11 -168 28
-235 37 -115 16 -573 17 -6788 18 -3666 1 -6692 0 -6725 -2z m4376 -4963 c574
-24 1009 -104 1444 -265 768 -284 1322 -782 1623 -1459 122 -273 209 -611 242
-941 15 -140 14 -491 0 -660 -53 -628 -259 -1155 -617 -1580 -471 -559 -1113
-901 -1948 -1039 -449 -74 -556 -81 -1275 -81 l-635 0 -5 -1366 c-4 -1091 -8
-1369 -18 -1381 -31 -38 -47 -38 -900 -36 l-834 3 -19 24 c-19 23 -19 105 -19
4361 0 3929 1 4340 16 4354 8 9 25 18 37 20 12 3 193 7 402 10 208 3 521 11
695 17 311 10 1036 25 1405 27 105 1 287 -3 406 -8z m8471 -2019 l33 -29 3
-839 c1 -461 0 -853 -3 -871 -10 -56 -30 -61 -246 -67 -454 -11 -796 -66
-1158 -185 -315 -104 -514 -211 -675 -361 l-76 -71 -2 -2159 -3 -2158 -23 -23
-23 -23 -862 -3 c-474 -1 -873 0 -885 3 -13 3 -35 18 -48 32 l-24 26 0 2342
c0 2555 -12 3524 -52 4058 -12 163 -11 168 8 188 20 20 31 20 793 19 649 0
777 -3 800 -15 47 -24 89 -81 110 -148 39 -127 79 -392 88 -584 3 -79 8 -143
10 -143 2 0 63 61 136 136 197 204 384 353 616 493 465 281 844 392 1403 409
40 2 53 -3 80 -27z"/>
<path d="M6620 12891 l-55 -6 0 -1400 0 -1400 50 -9 c83 -15 902 -13 1040 2
337 38 695 133 895 238 116 62 227 143 336 247 216 205 316 443 345 818 21
269 -12 495 -102 707 -189 444 -555 682 -1214 794 -74 12 -1189 20 -1295 9z"/>
</g>
</svg>
