<?xml version="1.0" standalone="no"?>
<!DOCTYPE svg PUBLIC "-//W3C//DTD SVG 20010904//EN"
 "http://www.w3.org/TR/2001/REC-SVG-20010904/DTD/svg10.dtd">
<svg version="1.0" xmlns="http://www.w3.org/2000/svg"
 width="1884.000000pt" height="2000.000000pt" viewBox="0 0 1884.000000 2000.000000"
 preserveAspectRatio="xMidYMid meet">

<g transform="translate(0.000000,2000.000000) scale(0.100000,-0.100000)"
fill="#000000" stroke="none">
<path d="M17450 11420 c0 -3003 -1 -5461 -2 -5462 -2 -1 -3241 -5 -7198 -8
l-7195 -5 -221 -126 c-121 -70 -432 -256 -692 -415 l-472 -288 -2 -2030 c-2
-1117 -2 -2078 -1 -2136 9 -457 403 -872 883 -929 69 -8 2272 -12 8193 -14
l8097 -2 0 5961 c0 3278 -3 7075 -7 8437 l-6 2477 -689 0 -688 0 0 -5460z
m-9084 -6995 c23 -77 146 -486 274 -910 457 -1516 570 -1898 564 -1907 -6 -9
-578 -3 -699 8 l-60 5 -64 242 c-35 133 -73 275 -84 315 l-20 74 -438 -4
c-240 -1 -440 -6 -444 -10 -4 -4 -38 -132 -77 -285 -38 -153 -73 -295 -79
-315 l-10 -38 -369 0 c-337 0 -370 1 -370 16 0 10 16 69 35 133 79 266 364
1262 701 2451 52 184 98 343 100 353 5 16 35 17 502 15 l496 -3 42 -140z
m1495 -205 c188 -436 380 -870 389 -875 5 -3 166 367 471 1085 l57 135 386 3
c212 1 386 -1 386 -4 0 -3 -40 -76 -89 -163 -112 -198 -215 -391 -431 -811
-95 -184 -206 -398 -248 -474 -101 -188 -120 -234 -149 -356 -30 -129 -39
-364 -26 -720 4 -129 7 -279 5 -332 l-3 -98 -375 0 -374 0 2 483 c2 364 0 510
-11 597 l-14 115 -145 290 c-159 319 -278 547 -569 1093 -106 200 -193 367
-193 373 0 6 143 8 392 7 l391 -3 148 -345z m3391 -120 c333 -1115 515 -1721
628 -2089 67 -216 118 -396 115 -400 -9 -8 -564 -3 -679 7 l-89 7 -47 185
c-26 102 -64 242 -85 312 l-38 128 -301 -1 c-165 -1 -364 -4 -440 -8 l-139 -6
-76 -300 c-42 -165 -80 -308 -84 -318 -6 -15 -23 -17 -179 -16 -95 1 -261 4
-369 8 l-196 6 37 130 c21 72 79 272 129 445 140 481 458 1592 571 1995 55
198 103 366 105 373 4 10 109 12 502 10 l497 -3 138 -465z"/>
<path d="M7811 3964 c-70 -260 -158 -633 -266 -1131 l-5 -23 290 0 c159 0 290
3 290 6 0 9 -83 364 -135 579 -47 195 -154 597 -160 603 -2 2 -8 -13 -14 -34z"/>
<path d="M12600 4003 c-6 -26 -63 -264 -126 -527 -63 -264 -125 -518 -138
-566 l-24 -87 157 -6 c185 -8 441 -9 441 -2 0 3 -23 95 -50 204 -28 110 -93
385 -145 612 -52 226 -96 414 -98 416 -3 2 -10 -18 -17 -44z"/>
</g>
</svg>
