<?xml version="1.0" standalone="no"?>
<!DOCTYPE svg PUBLIC "-//W3C//DTD SVG 20010904//EN"
 "http://www.w3.org/TR/2001/REC-SVG-20010904/DTD/svg10.dtd">
<svg version="1.0" xmlns="http://www.w3.org/2000/svg"
 width="2000.000000pt" height="1978.000000pt" viewBox="0 0 2000.000000 1978.000000"
 preserveAspectRatio="xMidYMid meet">

<g transform="translate(0.000000,1978.000000) scale(0.100000,-0.100000)"
fill="#000000" stroke="none">
<path d="M14270 19599 c-71 -8 -163 -40 -270 -94 -60 -30 -185 -140 -858 -753
-433 -394 -1309 -1192 -1947 -1772 -2013 -1832 -2929 -2666 -4068 -3702 -608
-555 -1108 -1008 -1111 -1008 -2 0 -316 236 -697 525 -382 289 -759 575 -839
635 -80 60 -588 445 -1130 856 -542 410 -1001 754 -1020 764 -19 10 -68 28
-109 40 -131 40 -285 14 -427 -71 -30 -19 -381 -324 -778 -679 -397 -355 -748
-667 -779 -693 -74 -63 -169 -191 -197 -264 -64 -167 -17 -332 132 -472 35
-32 263 -240 508 -462 445 -403 1039 -943 1795 -1629 220 -200 527 -479 682
-619 l283 -256 -28 -26 c-15 -15 -747 -680 -1627 -1479 -880 -798 -1615 -1468
-1633 -1488 -100 -111 -127 -271 -72 -427 22 -63 85 -176 118 -211 85 -90
1556 -1417 1603 -1445 88 -54 203 -83 309 -76 103 6 220 42 310 95 36 21 353
256 705 523 352 267 1146 869 1764 1338 618 468 1127 850 1131 849 4 -2 196
-174 426 -383 231 -210 813 -738 1294 -1175 481 -437 994 -903 1140 -1035 146
-132 488 -443 760 -690 272 -247 614 -558 760 -690 146 -132 510 -463 810
-736 300 -272 887 -805 1305 -1184 418 -380 937 -851 1153 -1047 450 -409 389
-372 622 -373 272 0 440 71 588 249 65 79 128 254 133 371 2 28 2 1063 1 2301
l-2 2252 -902 683 c-1903 1441 -2804 2122 -3877 2934 -610 462 -1109 843
-1108 847 2 7 244 192 3657 2798 1048 799 1972 1505 2053 1567 82 62 157 119
168 126 19 12 19 46 19 2288 0 2207 -1 2278 -19 2331 -32 94 -103 226 -167
311 -146 194 -340 283 -564 256z"/>
</g>
</svg>
